STARTFONT 2.1
FONT -Monotype-Rockwell-Bold-R-Normal--14-140-72-72-P-74-ISO8859-1
SIZE 14 72 72
FONTBOUNDINGBOX 20 17 -3 -3

STARTPROPERTIES 22
FOUNDRY "Monotype"
FAMILY_NAME "Rockwell"
WEIGHT_NAME "Bold"
SLANT "R"
SETWIDTH_NAME "Normal"
ADD_STYLE_NAME ""
PIXEL_SIZE 14
POINT_SIZE 140
RESOLUTION_X 72
RESOLUTION_Y 72
SPACING "P"
AVERAGE_WIDTH 74
CHARSET_REGISTRY "ISO8859"
CHARSET_ENCODING "1"
FULL_NAME "Rockwell-Bold"
COPYRIGHT "Copyright (c) 1991 The Monotype Corporation plc."
WEIGHT 10
X_HEIGHT 7
QUAD_WIDTH 9
DEFAULT_CHAR 32
FONT_DESCENT 4
FONT_ASCENT 13
ENDPROPERTIES

CHARS 190

STARTCHAR space
ENCODING 32
SWIDTH 250 0
DWIDTH 4 0
BBX 1 1 0 0
BITMAP
00
ENDCHAR

STARTCHAR exclam
ENCODING 33
SWIDTH 354 0
DWIDTH 5 0
BBX 3 10 3 0
BITMAP
C0
C0
C0
C0
C0
40
40
00
60
60
ENDCHAR

STARTCHAR quotedbl
ENCODING 34
SWIDTH 552 0
DWIDTH 8 0
BBX 5 5 1 5
BITMAP
D8
D8
D8
D8
90
ENDCHAR

STARTCHAR numbersign
ENCODING 35
SWIDTH 668 0
DWIDTH 9 0
BBX 8 10 0 0
BITMAP
13
32
FF
26
66
66
FF
44
44
4C
ENDCHAR

STARTCHAR dollar
ENCODING 36
SWIDTH 563 0
DWIDTH 8 0
BBX 6 11 1 -1
BITMAP
70
F8
A4
A0
F0
78
2C
24
A4
F8
20
ENDCHAR

STARTCHAR percent
ENCODING 37
SWIDTH 927 0
DWIDTH 13 0
BBX 11 10 1 0
BITMAP
E180
A100
A200
A600
E4C0
0920
1920
1120
2120
60C0
ENDCHAR

STARTCHAR ampersand
ENCODING 38
SWIDTH 802 0
DWIDTH 11 0
BBX 10 10 1 0
BITMAP
1C00
3200
3200
1C00
39C0
6D80
CF00
C700
C700
7DC0
ENDCHAR

STARTCHAR quoteright
ENCODING 39
SWIDTH 354 0
DWIDTH 5 0
BBX 2 5 2 5
BITMAP
C0
C0
40
40
80
ENDCHAR

STARTCHAR parenleft
ENCODING 40
SWIDTH 344 0
DWIDTH 5 0
BBX 4 13 1 -3
BITMAP
10
20
60
40
C0
C0
C0
C0
C0
40
60
20
10
ENDCHAR

STARTCHAR parenright
ENCODING 41
SWIDTH 344 0
DWIDTH 5 0
BBX 4 13 0 -3
BITMAP
80
40
60
20
30
30
30
30
30
20
60
C0
80
ENDCHAR

STARTCHAR asterisk
ENCODING 42
SWIDTH 573 0
DWIDTH 8 0
BBX 7 7 1 3
BITMAP
10
10
D6
FE
10
6C
6C
ENDCHAR

STARTCHAR plus
ENCODING 43
SWIDTH 668 0
DWIDTH 9 0
BBX 7 7 1 1
BITMAP
10
10
10
FE
10
10
10
ENDCHAR

STARTCHAR comma
ENCODING 44
SWIDTH 354 0
DWIDTH 5 0
BBX 2 5 1 -3
BITMAP
C0
C0
40
40
80
ENDCHAR

STARTCHAR minus
ENCODING 45
SWIDTH 668 0
DWIDTH 9 0
BBX 8 1 1 4
BITMAP
FF
ENDCHAR

STARTCHAR period
ENCODING 46
SWIDTH 354 0
DWIDTH 5 0
BBX 2 2 1 0
BITMAP
C0
C0
ENDCHAR

STARTCHAR slash
ENCODING 47
SWIDTH 508 0
DWIDTH 5 0
BBX 4 13 0 -3
BITMAP
10
10
10
10
20
20
20
20
40
40
40
40
80
ENDCHAR

STARTCHAR zero
ENCODING 48
SWIDTH 552 0
DWIDTH 8 0
BBX 6 10 1 0
BITMAP
78
48
CC
CC
CC
CC
CC
CC
48
78
ENDCHAR

STARTCHAR one
ENCODING 49
SWIDTH 552 0
DWIDTH 8 0
BBX 4 10 2 0
BITMAP
E0
60
60
60
60
60
60
60
60
F0
ENDCHAR

STARTCHAR two
ENCODING 50
SWIDTH 552 0
DWIDTH 8 0
BBX 5 10 1 0
BITMAP
70
98
98
18
10
20
40
40
88
F8
ENDCHAR

STARTCHAR three
ENCODING 51
SWIDTH 552 0
DWIDTH 8 0
BBX 6 10 1 0
BITMAP
78
8C
0C
0C
38
0C
0C
8C
8C
78
ENDCHAR

STARTCHAR four
ENCODING 52
SWIDTH 552 0
DWIDTH 8 0
BBX 7 10 0 0
BITMAP
0C
1C
1C
2C
6C
CC
FE
0C
0C
1E
ENDCHAR

STARTCHAR five
ENCODING 53
SWIDTH 552 0
DWIDTH 8 0
BBX 6 10 1 0
BITMAP
FC
8C
80
80
F8
4C
0C
0C
8C
78
ENDCHAR

STARTCHAR six
ENCODING 54
SWIDTH 552 0
DWIDTH 8 0
BBX 6 10 1 0
BITMAP
38
6C
C0
C0
F8
CC
CC
CC
4C
78
ENDCHAR

STARTCHAR seven
ENCODING 55
SWIDTH 552 0
DWIDTH 8 0
BBX 6 10 1 0
BITMAP
FC
8C
08
18
18
10
30
30
30
78
ENDCHAR

STARTCHAR eight
ENCODING 56
SWIDTH 552 0
DWIDTH 8 0
BBX 7 10 0 0
BITMAP
7C
C6
C6
C6
7C
C6
C6
C6
C6
7C
ENDCHAR

STARTCHAR nine
ENCODING 57
SWIDTH 552 0
DWIDTH 8 0
BBX 6 10 1 0
BITMAP
78
C8
CC
CC
CC
7C
0C
0C
C8
70
ENDCHAR

STARTCHAR colon
ENCODING 58
SWIDTH 354 0
DWIDTH 5 0
BBX 2 7 1 0
BITMAP
C0
C0
00
00
00
C0
C0
ENDCHAR

STARTCHAR semicolon
ENCODING 59
SWIDTH 354 0
DWIDTH 5 0
BBX 2 10 1 -3
BITMAP
C0
C0
00
00
C0
C0
C0
40
40
80
ENDCHAR

STARTCHAR less
ENCODING 60
SWIDTH 667 0
DWIDTH 9 0
BBX 8 8 1 1
BITMAP
01
07
3C
E0
E0
3C
07
01
ENDCHAR

STARTCHAR equal
ENCODING 61
SWIDTH 667 0
DWIDTH 9 0
BBX 8 5 1 2
BITMAP
FF
00
00
00
FF
ENDCHAR

STARTCHAR greater
ENCODING 62
SWIDTH 667 0
DWIDTH 9 0
BBX 7 8 1 1
BITMAP
80
E0
38
0E
0E
38
E0
80
ENDCHAR

STARTCHAR question
ENCODING 63
SWIDTH 563 0
DWIDTH 8 0
BBX 7 10 0 0
BITMAP
7C
C6
06
06
06
1C
10
00
30
30
ENDCHAR

STARTCHAR at
ENCODING 64
SWIDTH 979 0
DWIDTH 14 0
BBX 13 13 1 -3
BITMAP
0FC0
3020
6010
47C8
88C8
90C8
9088
9090
91B0
4FF8
4010
3060
0FC0
ENDCHAR

STARTCHAR A
ENCODING 65
SWIDTH 698 0
DWIDTH 10 0
BBX 9 10 0 0
BITMAP
3E00
1400
1400
1600
1600
3E00
2200
2300
2300
F780
ENDCHAR

STARTCHAR B
ENCODING 66
SWIDTH 698 0
DWIDTH 10 0
BBX 8 10 1 0
BITMAP
FE
63
63
63
7E
63
63
63
63
FE
ENDCHAR

STARTCHAR C
ENCODING 67
SWIDTH 781 0
DWIDTH 11 0
BBX 10 10 0 0
BITMAP
1EC0
71C0
60C0
C000
C000
C000
C000
60C0
6180
1F00
ENDCHAR

STARTCHAR D
ENCODING 68
SWIDTH 802 0
DWIDTH 11 0
BBX 10 10 1 0
BITMAP
FE00
3180
3080
30C0
30C0
30C0
30C0
3080
3180
FF00
ENDCHAR

STARTCHAR E
ENCODING 69
SWIDTH 667 0
DWIDTH 9 0
BBX 8 10 1 0
BITMAP
FF
61
61
60
78
60
60
61
61
FF
ENDCHAR

STARTCHAR F
ENCODING 70
SWIDTH 646 0
DWIDTH 9 0
BBX 8 10 1 0
BITMAP
FF
61
60
60
7C
60
60
60
60
F8
ENDCHAR

STARTCHAR G
ENCODING 71
SWIDTH 844 0
DWIDTH 12 0
BBX 10 10 1 0
BITMAP
3D80
6380
6180
C000
C000
C7C0
C1C0
61C0
6380
1F00
ENDCHAR

STARTCHAR H
ENCODING 72
SWIDTH 760 0
DWIDTH 11 0
BBX 11 10 0 0
BITMAP
FBE0
3180
3180
3180
3F80
3180
3180
3180
3180
FBE0
ENDCHAR

STARTCHAR I
ENCODING 73
SWIDTH 427 0
DWIDTH 6 0
BBX 6 10 0 0
BITMAP
FC
30
30
30
30
30
30
30
30
FC
ENDCHAR

STARTCHAR J
ENCODING 74
SWIDTH 406 0
DWIDTH 6 0
BBX 5 13 0 -3
BITMAP
F8
30
30
30
30
30
30
30
30
30
30
30
E0
ENDCHAR

STARTCHAR K
ENCODING 75
SWIDTH 781 0
DWIDTH 11 0
BBX 11 10 0 0
BITMAP
F3E0
6180
6300
6600
6C00
6600
6700
6380
6180
F3E0
ENDCHAR

STARTCHAR L
ENCODING 76
SWIDTH 646 0
DWIDTH 9 0
BBX 7 10 1 0
BITMAP
F0
60
60
60
60
60
62
62
62
FE
ENDCHAR

STARTCHAR M
ENCODING 77
SWIDTH 1042 0
DWIDTH 15 0
BBX 13 10 1 0
BITMAP
F8F8
78B0
58B0
58B0
4D30
4D30
4D30
4630
4630
E678
ENDCHAR

STARTCHAR N
ENCODING 78
SWIDTH 792 0
DWIDTH 11 0
BBX 9 10 1 0
BITMAP
F380
7100
7900
5900
5D00
4D00
4F00
4700
4700
E300
ENDCHAR

STARTCHAR O
ENCODING 79
SWIDTH 854 0
DWIDTH 12 0
BBX 10 10 1 0
BITMAP
1E00
6180
6180
C0C0
C0C0
C0C0
C0C0
6180
6180
1E00
ENDCHAR

STARTCHAR P
ENCODING 80
SWIDTH 667 0
DWIDTH 9 0
BBX 8 10 1 0
BITMAP
FE
63
63
63
67
7E
60
60
60
F0
ENDCHAR

STARTCHAR Q
ENCODING 81
SWIDTH 854 0
DWIDTH 12 0
BBX 10 12 1 -2
BITMAP
1E00
6180
6180
C0C0
C0C0
C0C0
C0C0
E180
6100
7E00
1C00
2300
ENDCHAR

STARTCHAR R
ENCODING 82
SWIDTH 729 0
DWIDTH 10 0
BBX 9 10 1 0
BITMAP
FE00
6300
6300
6300
6700
7C00
6C00
6600
6600
F380
ENDCHAR

STARTCHAR S
ENCODING 83
SWIDTH 531 0
DWIDTH 7 0
BBX 6 10 1 0
BITMAP
7C
CC
C0
E0
70
3C
0C
CC
CC
F8
ENDCHAR

STARTCHAR T
ENCODING 84
SWIDTH 677 0
DWIDTH 9 0
BBX 8 10 1 0
BITMAP
FF
99
99
99
18
18
18
18
18
7E
ENDCHAR

STARTCHAR U
ENCODING 85
SWIDTH 677 0
DWIDTH 9 0
BBX 8 10 1 0
BITMAP
F7
62
62
62
62
62
62
62
62
3C
ENDCHAR

STARTCHAR V
ENCODING 86
SWIDTH 698 0
DWIDTH 10 0
BBX 10 10 0 0
BITMAP
FBC0
7100
3100
3300
3200
1A00
1A00
1C00
0C00
0C00
ENDCHAR

STARTCHAR W
ENCODING 87
SWIDTH 990 0
DWIDTH 14 0
BBX 14 10 0 0
BITMAP
F7BC
6310
3310
3390
37B0
3FA0
1FE0
1CE0
1CC0
0CC0
ENDCHAR

STARTCHAR X
ENCODING 88
SWIDTH 740 0
DWIDTH 10 0
BBX 10 10 0 0
BITMAP
FBC0
3100
3B00
1E00
0C00
0E00
1E00
1700
2380
F7C0
ENDCHAR

STARTCHAR Y
ENCODING 89
SWIDTH 698 0
DWIDTH 10 0
BBX 10 10 0 0
BITMAP
FBC0
3100
3B00
1A00
0E00
0C00
0C00
0C00
0C00
1E00
ENDCHAR

STARTCHAR Z
ENCODING 90
SWIDTH 646 0
DWIDTH 9 0
BBX 7 10 1 0
BITMAP
FE
8E
9C
18
38
30
60
62
C2
FE
ENDCHAR

STARTCHAR bracketleft
ENCODING 91
SWIDTH 417 0
DWIDTH 6 0
BBX 4 13 1 -3
BITMAP
F0
C0
C0
C0
C0
C0
C0
C0
C0
C0
C0
C0
F0
ENDCHAR

STARTCHAR backslash
ENCODING 92
SWIDTH 508 0
DWIDTH 9 0
BBX 7 10 1 0
BITMAP
C0
40
20
20
10
10
08
08
04
06
ENDCHAR

STARTCHAR bracketright
ENCODING 93
SWIDTH 417 0
DWIDTH 6 0
BBX 4 13 0 -3
BITMAP
F0
30
30
30
30
30
30
30
30
30
30
30
F0
ENDCHAR

STARTCHAR asciicircum
ENCODING 94
SWIDTH 583 0
DWIDTH 8 0
BBX 6 5 1 5
BITMAP
30
30
48
48
84
ENDCHAR

STARTCHAR underscore
ENCODING 95
SWIDTH 500 0
DWIDTH 7 0
BBX 7 1 0 -3
BITMAP
FE
ENDCHAR

STARTCHAR quoteleft
ENCODING 96
SWIDTH 354 0
DWIDTH 5 0
BBX 2 5 2 5
BITMAP
40
80
80
C0
C0
ENDCHAR

STARTCHAR a
ENCODING 97
SWIDTH 583 0
DWIDTH 8 0
BBX 7 7 1 0
BITMAP
F8
0C
0C
7C
CC
CC
7E
ENDCHAR

STARTCHAR b
ENCODING 98
SWIDTH 625 0
DWIDTH 9 0
BBX 8 10 0 0
BITMAP
E0
60
60
6E
73
63
63
63
77
EE
ENDCHAR

STARTCHAR c
ENCODING 99
SWIDTH 563 0
DWIDTH 8 0
BBX 7 7 0 0
BITMAP
3A
66
C0
C0
C0
66
3C
ENDCHAR

STARTCHAR d
ENCODING 100
SWIDTH 625 0
DWIDTH 9 0
BBX 8 10 1 0
BITMAP
0E
06
06
76
6E
C6
C6
C6
6E
77
ENDCHAR

STARTCHAR e
ENCODING 101
SWIDTH 573 0
DWIDTH 8 0
BBX 7 7 1 0
BITMAP
38
44
C6
FE
C0
46
3C
ENDCHAR

STARTCHAR f
ENCODING 102
SWIDTH 354 0
DWIDTH 5 0
BBX 6 10 0 0
BITMAP
3C
68
60
F0
60
60
60
60
60
F0
ENDCHAR

STARTCHAR g
ENCODING 103
SWIDTH 625 0
DWIDTH 9 0
BBX 8 10 1 -3
BITMAP
77
EE
C6
C6
C6
6E
76
06
0E
F8
ENDCHAR

STARTCHAR h
ENCODING 104
SWIDTH 625 0
DWIDTH 9 0
BBX 8 10 0 0
BITMAP
E0
60
60
7C
66
66
66
66
66
F7
ENDCHAR

STARTCHAR i
ENCODING 105
SWIDTH 354 0
DWIDTH 5 0
BBX 4 10 -1 0
BITMAP
60
60
00
E0
60
60
60
60
60
F0
ENDCHAR

STARTCHAR j
ENCODING 106
SWIDTH 354 0
DWIDTH 5 0
BBX 4 13 0 -3
BITMAP
30
30
00
70
30
30
30
30
30
30
30
30
E0
ENDCHAR

STARTCHAR k
ENCODING 107
SWIDTH 646 0
DWIDTH 9 0
BBX 8 10 1 0
BITMAP
E0
60
60
6F
66
6C
78
6C
66
F3
ENDCHAR

STARTCHAR l
ENCODING 108
SWIDTH 354 0
DWIDTH 5 0
BBX 4 10 1 0
BITMAP
E0
60
60
60
60
60
60
60
60
F0
ENDCHAR

STARTCHAR m
ENCODING 109
SWIDTH 990 0
DWIDTH 14 0
BBX 14 7 0 0
BITMAP
FEF0
6318
6318
6318
6318
6318
F39C
ENDCHAR

STARTCHAR n
ENCODING 110
SWIDTH 625 0
DWIDTH 9 0
BBX 8 7 1 0
BITMAP
FC
66
66
66
66
66
F7
ENDCHAR

STARTCHAR o
ENCODING 111
SWIDTH 573 0
DWIDTH 8 0
BBX 7 7 1 0
BITMAP
38
6C
C6
C6
C6
6C
38
ENDCHAR

STARTCHAR p
ENCODING 112
SWIDTH 625 0
DWIDTH 9 0
BBX 8 10 0 -3
BITMAP
EE
77
63
63
63
73
6E
60
60
F0
ENDCHAR

STARTCHAR q
ENCODING 113
SWIDTH 625 0
DWIDTH 9 0
BBX 8 10 1 -3
BITMAP
7F
E6
C6
C6
C6
CE
76
06
06
0F
ENDCHAR

STARTCHAR r
ENCODING 114
SWIDTH 448 0
DWIDTH 6 0
BBX 5 7 1 0
BITMAP
E8
78
70
60
60
60
F0
ENDCHAR

STARTCHAR s
ENCODING 115
SWIDTH 510 0
DWIDTH 7 0
BBX 5 7 1 0
BITMAP
78
98
E0
F8
38
88
F0
ENDCHAR

STARTCHAR t
ENCODING 116
SWIDTH 344 0
DWIDTH 5 0
BBX 4 10 0 0
BITMAP
20
60
60
F0
60
60
60
60
70
70
ENDCHAR

STARTCHAR u
ENCODING 117
SWIDTH 625 0
DWIDTH 9 0
BBX 8 7 0 0
BITMAP
EE
66
66
66
66
66
3F
ENDCHAR

STARTCHAR v
ENCODING 118
SWIDTH 573 0
DWIDTH 8 0
BBX 8 7 0 0
BITMAP
F7
62
24
34
34
18
18
ENDCHAR

STARTCHAR w
ENCODING 119
SWIDTH 813 0
DWIDTH 11 0
BBX 11 7 0 0
BITMAP
F6E0
6E40
2F40
3B80
3B80
3980
1980
ENDCHAR

STARTCHAR x
ENCODING 120
SWIDTH 563 0
DWIDTH 8 0
BBX 7 7 0 0
BITMAP
E6
6C
38
38
3C
6C
CE
ENDCHAR

STARTCHAR y
ENCODING 121
SWIDTH 594 0
DWIDTH 8 0
BBX 8 10 0 -3
BITMAP
F7
62
24
34
34
18
18
18
10
30
ENDCHAR

STARTCHAR z
ENCODING 122
SWIDTH 531 0
DWIDTH 7 0
BBX 5 7 1 0
BITMAP
F8
98
30
20
60
C8
F8
ENDCHAR

STARTCHAR braceleft
ENCODING 123
SWIDTH 385 0
DWIDTH 5 0
BBX 5 13 0 -3
BITMAP
18
20
20
20
20
20
20
E0
20
20
20
20
18
ENDCHAR

STARTCHAR bar
ENCODING 124
SWIDTH 611 0
DWIDTH 9 0
BBX 1 13 4 -3
BITMAP
80
80
80
80
80
80
80
80
80
80
80
80
80
ENDCHAR

STARTCHAR braceright
ENCODING 125
SWIDTH 385 0
DWIDTH 5 0
BBX 4 13 1 -3
BITMAP
C0
40
40
40
40
40
40
70
40
40
40
40
C0
ENDCHAR

STARTCHAR asciitilde
ENCODING 126
SWIDTH 583 0
DWIDTH 8 0
BBX 7 2 1 5
BITMAP
F2
9E
ENDCHAR

STARTCHAR exclamdown
ENCODING 161
SWIDTH 354 0
DWIDTH 5 0
BBX 3 9 3 -2
BITMAP
60
60
00
40
40
C0
C0
C0
C0
ENDCHAR

STARTCHAR cent
ENCODING 162
SWIDTH 563 0
DWIDTH 8 0
BBX 7 13 0 -3
BITMAP
04
04
08
3A
56
D0
D0
E0
66
3C
20
40
40
ENDCHAR

STARTCHAR sterling
ENCODING 163
SWIDTH 573 0
DWIDTH 8 0
BBX 6 10 1 0
BITMAP
38
64
60
60
30
F8
10
F4
BC
D8
ENDCHAR

STARTCHAR currency
ENCODING 164
SWIDTH 667 0
DWIDTH 9 0
BBX 6 6 2 1
BITMAP
FC
CC
84
84
CC
FC
ENDCHAR

STARTCHAR yen
ENCODING 165
SWIDTH 698 0
DWIDTH 10 0
BBX 10 10 0 0
BITMAP
FBC0
3100
FFC0
1A00
FFC0
0C00
0C00
0C00
0C00
1E00
ENDCHAR

STARTCHAR brokenbar
ENCODING 166
SWIDTH 611 0
DWIDTH 9 0
BBX 1 13 4 -3
BITMAP
80
80
80
80
80
80
00
00
80
80
80
80
80
ENDCHAR

STARTCHAR section
ENCODING 167
SWIDTH 521 0
DWIDTH 7 0
BBX 6 13 1 -3
BITMAP
70
C8
C0
F0
F8
CC
84
C4
64
3C
0C
4C
38
ENDCHAR

STARTCHAR dieresis
ENCODING 168
SWIDTH 333 0
DWIDTH 5 0
BBX 5 2 0 8
BITMAP
D8
D8
ENDCHAR

STARTCHAR copyright
ENCODING 169
SWIDTH 740 0
DWIDTH 10 0
BBX 10 10 0 0
BITMAP
1E00
6180
4E80
9140
9040
9040
9140
4E80
6180
1E00
ENDCHAR

STARTCHAR ordfeminine
ENCODING 170
SWIDTH 396 0
DWIDTH 6 0
BBX 5 4 0 6
BITMAP
F0
F0
90
F8
ENDCHAR

STARTCHAR guillemotleft
ENCODING 171
SWIDTH 542 0
DWIDTH 8 0
BBX 8 7 0 0
BITMAP
CC
66
22
33
22
66
CC
ENDCHAR

STARTCHAR logicalnot
ENCODING 172
SWIDTH 668 0
DWIDTH 9 0
BBX 7 4 1 2
BITMAP
FE
02
02
02
ENDCHAR

STARTCHAR hyphen
ENCODING 173
SWIDTH 344 0
DWIDTH 5 0
BBX 4 1 0 2
BITMAP
F0
ENDCHAR

STARTCHAR registered
ENCODING 174
SWIDTH 740 0
DWIDTH 10 0
BBX 10 10 0 0
BITMAP
1E00
6180
5E80
9240
9E40
9440
9640
5280
6180
1E00
ENDCHAR

STARTCHAR macron
ENCODING 175
SWIDTH 333 0
DWIDTH 5 0
BBX 6 1 0 7
BITMAP
FC
ENDCHAR

STARTCHAR degree
ENCODING 176
SWIDTH 396 0
DWIDTH 6 0
BBX 5 5 0 5
BITMAP
70
88
88
88
70
ENDCHAR

STARTCHAR plusminus
ENCODING 177
SWIDTH 668 0
DWIDTH 9 0
BBX 7 10 1 0
BITMAP
10
10
10
FE
10
10
10
00
00
FE
ENDCHAR

STARTCHAR twosuperior
ENCODING 178
SWIDTH 333 0
DWIDTH 5 0
BBX 3 6 -3 4
BITMAP
E0
A0
20
40
A0
E0
ENDCHAR

STARTCHAR threesuperior
ENCODING 179
SWIDTH 333 0
DWIDTH 5 0
BBX 4 6 -3 4
BITMAP
F0
10
30
10
90
E0
ENDCHAR

STARTCHAR acute
ENCODING 180
SWIDTH 333 0
DWIDTH 5 0
BBX 4 2 1 8
BITMAP
70
C0
ENDCHAR

STARTCHAR mu
ENCODING 181
SWIDTH 615 0
DWIDTH 9 0
BBX 7 10 1 -3
BITMAP
C6
C6
C6
C6
C6
C6
FE
C0
C0
C0
ENDCHAR

STARTCHAR paragraph
ENCODING 182
SWIDTH 552 0
DWIDTH 8 0
BBX 7 13 0 -3
BITMAP
7E
F4
F4
F4
74
14
14
14
14
14
14
14
14
ENDCHAR

STARTCHAR periodcentered
ENCODING 183
SWIDTH 365 0
DWIDTH 5 0
BBX 2 2 2 5
BITMAP
C0
C0
ENDCHAR

STARTCHAR cedilla
ENCODING 184
SWIDTH 333 0
DWIDTH 5 0
BBX 4 3 0 -3
BITMAP
70
30
E0
ENDCHAR

STARTCHAR onesuperior
ENCODING 185
SWIDTH 333 0
DWIDTH 5 0
BBX 3 6 -3 4
BITMAP
C0
40
40
40
40
E0
ENDCHAR

STARTCHAR ordmasculine
ENCODING 186
SWIDTH 375 0
DWIDTH 5 0
BBX 4 4 1 6
BITMAP
60
90
90
60
ENDCHAR

STARTCHAR guillemotright
ENCODING 187
SWIDTH 542 0
DWIDTH 8 0
BBX 8 7 0 0
BITMAP
33
66
44
CC
44
66
33
ENDCHAR

STARTCHAR onequarter
ENCODING 188
SWIDTH 927 0
DWIDTH 14 0
BBX 12 10 3 0
BITMAP
C040
4080
4100
4300
4220
E460
0C60
08A0
10F0
3070
ENDCHAR

STARTCHAR onehalf
ENCODING 189
SWIDTH 927 0
DWIDTH 14 0
BBX 12 10 3 0
BITMAP
C040
4080
4100
4300
4270
E450
0C10
0820
1050
3070
ENDCHAR

STARTCHAR threequarters
ENCODING 190
SWIDTH 927 0
DWIDTH 14 0
BBX 13 10 4 0
BITMAP
F020
1040
3080
1180
9110
E230
0630
0450
0878
1838
ENDCHAR

STARTCHAR questiondown
ENCODING 191
SWIDTH 563 0
DWIDTH 8 0
BBX 7 10 1 -3
BITMAP
18
18
00
10
70
F0
F0
C0
C6
7C
ENDCHAR

STARTCHAR Agrave
ENCODING 192
SWIDTH 698 0
DWIDTH 10 0
BBX 9 13 0 0
BITMAP
3800
0C00
0000
3E00
1400
1400
1600
1600
3E00
2200
2300
2300
F780
ENDCHAR

STARTCHAR Aacute
ENCODING 193
SWIDTH 698 0
DWIDTH 10 0
BBX 9 13 0 0
BITMAP
0E00
1800
0000
3E00
1400
1400
1600
1600
3E00
2200
2300
2300
F780
ENDCHAR

STARTCHAR Acircumflex
ENCODING 194
SWIDTH 698 0
DWIDTH 10 0
BBX 9 13 0 0
BITMAP
1C00
3600
0000
3E00
1400
1400
1600
1600
3E00
2200
2300
2300
F780
ENDCHAR

STARTCHAR Atilde
ENCODING 195
SWIDTH 698 0
DWIDTH 10 0
BBX 9 13 0 0
BITMAP
3A00
2E00
0000
3E00
1400
1400
1600
1600
3E00
2200
2300
2300
F780
ENDCHAR

STARTCHAR Adieresis
ENCODING 196
SWIDTH 698 0
DWIDTH 10 0
BBX 9 13 0 0
BITMAP
3600
3600
0000
3E00
1400
1400
1600
1600
3E00
2200
2300
2300
F780
ENDCHAR

STARTCHAR Aring
ENCODING 197
SWIDTH 698 0
DWIDTH 10 0
BBX 9 14 0 0
BITMAP
1C00
1400
1C00
0000
3E00
1400
1400
1600
1600
3E00
2200
2300
2300
F780
ENDCHAR

STARTCHAR AE
ENCODING 198
SWIDTH 990 0
DWIDTH 14 0
BBX 13 10 0 0
BITMAP
3FF8
1B08
1B08
1300
3FC0
2300
2300
2308
6308
F7F8
ENDCHAR

STARTCHAR Ccedilla
ENCODING 199
SWIDTH 781 0
DWIDTH 11 0
BBX 10 13 0 -3
BITMAP
1EC0
71C0
60C0
C000
C000
C000
C000
60C0
6180
1F00
1C00
0C00
3800
ENDCHAR

STARTCHAR Egrave
ENCODING 200
SWIDTH 667 0
DWIDTH 9 0
BBX 8 13 1 0
BITMAP
38
0C
00
FF
61
61
60
78
60
60
61
61
FF
ENDCHAR

STARTCHAR Eacute
ENCODING 201
SWIDTH 667 0
DWIDTH 9 0
BBX 8 13 1 0
BITMAP
1C
30
00
FF
61
61
60
78
60
60
61
61
FF
ENDCHAR

STARTCHAR Ecircumflex
ENCODING 202
SWIDTH 667 0
DWIDTH 9 0
BBX 8 13 1 0
BITMAP
1C
36
00
FF
61
61
60
78
60
60
61
61
FF
ENDCHAR

STARTCHAR Edieresis
ENCODING 203
SWIDTH 667 0
DWIDTH 9 0
BBX 8 13 1 0
BITMAP
6C
6C
00
FF
61
61
60
78
60
60
61
61
FF
ENDCHAR

STARTCHAR Igrave
ENCODING 204
SWIDTH 427 0
DWIDTH 6 0
BBX 6 13 0 0
BITMAP
70
18
00
FC
30
30
30
30
30
30
30
30
FC
ENDCHAR

STARTCHAR Iacute
ENCODING 205
SWIDTH 427 0
DWIDTH 6 0
BBX 6 13 0 0
BITMAP
38
60
00
FC
30
30
30
30
30
30
30
30
FC
ENDCHAR

STARTCHAR Icircumflex
ENCODING 206
SWIDTH 427 0
DWIDTH 6 0
BBX 6 13 0 0
BITMAP
38
6C
00
FC
30
30
30
30
30
30
30
30
FC
ENDCHAR

STARTCHAR Idieresis
ENCODING 207
SWIDTH 427 0
DWIDTH 6 0
BBX 6 13 0 0
BITMAP
D8
D8
00
FC
30
30
30
30
30
30
30
30
FC
ENDCHAR

STARTCHAR Eth
ENCODING 208
SWIDTH 802 0
DWIDTH 11 0
BBX 10 10 1 0
BITMAP
FE00
3180
3080
30C0
FCC0
30C0
30C0
3080
3180
FF00
ENDCHAR

STARTCHAR Ntilde
ENCODING 209
SWIDTH 792 0
DWIDTH 11 0
BBX 9 13 1 0
BITMAP
3A00
2E00
0000
F380
7100
7900
5900
5D00
4D00
4F00
4700
4700
E300
ENDCHAR

STARTCHAR Ograve
ENCODING 210
SWIDTH 854 0
DWIDTH 12 0
BBX 10 13 1 0
BITMAP
1C00
0600
0000
1E00
6180
6180
C0C0
C0C0
C0C0
C0C0
6180
6180
1E00
ENDCHAR

STARTCHAR Oacute
ENCODING 211
SWIDTH 854 0
DWIDTH 12 0
BBX 10 13 1 0
BITMAP
0E00
1800
0000
1E00
6180
6180
C0C0
C0C0
C0C0
C0C0
6180
6180
1E00
ENDCHAR

STARTCHAR Ocircumflex
ENCODING 212
SWIDTH 854 0
DWIDTH 12 0
BBX 10 13 1 0
BITMAP
0E00
1B00
0000
1E00
6180
6180
C0C0
C0C0
C0C0
C0C0
6180
6180
1E00
ENDCHAR

STARTCHAR Otilde
ENCODING 213
SWIDTH 854 0
DWIDTH 12 0
BBX 10 13 1 0
BITMAP
1D00
1700
0000
1E00
6180
6180
C0C0
C0C0
C0C0
C0C0
6180
6180
1E00
ENDCHAR

STARTCHAR Odieresis
ENCODING 214
SWIDTH 854 0
DWIDTH 12 0
BBX 10 13 1 0
BITMAP
3600
3600
0000
1E00
6180
6180
C0C0
C0C0
C0C0
C0C0
6180
6180
1E00
ENDCHAR

STARTCHAR multiply
ENCODING 215
SWIDTH 667 0
DWIDTH 9 0
BBX 7 7 1 1
BITMAP
C2
66
3C
18
3C
E6
82
ENDCHAR

STARTCHAR Oslash
ENCODING 216
SWIDTH 854 0
DWIDTH 12 0
BBX 10 10 1 0
BITMAP
1E40
6180
6180
C3C0
C6C0
C4C0
C8C0
7180
6180
5E00
ENDCHAR

STARTCHAR Ugrave
ENCODING 217
SWIDTH 677 0
DWIDTH 9 0
BBX 8 13 1 0
BITMAP
38
0C
00
F7
62
62
62
62
62
62
62
62
3C
ENDCHAR

STARTCHAR Uacute
ENCODING 218
SWIDTH 677 0
DWIDTH 9 0
BBX 8 13 1 0
BITMAP
1C
30
00
F7
62
62
62
62
62
62
62
62
3C
ENDCHAR

STARTCHAR Ucircumflex
ENCODING 219
SWIDTH 677 0
DWIDTH 9 0
BBX 8 13 1 0
BITMAP
1C
36
00
F7
62
62
62
62
62
62
62
62
3C
ENDCHAR

STARTCHAR Udieresis
ENCODING 220
SWIDTH 677 0
DWIDTH 9 0
BBX 8 13 1 0
BITMAP
36
36
00
F7
62
62
62
62
62
62
62
62
3C
ENDCHAR

STARTCHAR Yacute
ENCODING 221
SWIDTH 698 0
DWIDTH 10 0
BBX 10 13 0 0
BITMAP
0E00
1800
0000
FBC0
3100
3B00
1A00
0E00
0C00
0C00
0C00
0C00
1E00
ENDCHAR

STARTCHAR Thorn
ENCODING 222
SWIDTH 667 0
DWIDTH 9 0
BBX 8 10 1 0
BITMAP
F8
60
60
7E
63
63
63
7E
60
F8
ENDCHAR

STARTCHAR germandbls
ENCODING 223
SWIDTH 646 0
DWIDTH 9 0
BBX 8 10 0 0
BITMAP
3E
63
63
63
66
63
63
63
63
E6
ENDCHAR

STARTCHAR agrave
ENCODING 224
SWIDTH 583 0
DWIDTH 8 0
BBX 7 10 1 0
BITMAP
70
18
00
F8
0C
0C
7C
CC
CC
7E
ENDCHAR

STARTCHAR aacute
ENCODING 225
SWIDTH 583 0
DWIDTH 8 0
BBX 7 10 1 0
BITMAP
1C
30
00
F8
0C
0C
7C
CC
CC
7E
ENDCHAR

STARTCHAR acircumflex
ENCODING 226
SWIDTH 583 0
DWIDTH 8 0
BBX 7 10 1 0
BITMAP
38
6C
00
F8
0C
0C
7C
CC
CC
7E
ENDCHAR

STARTCHAR atilde
ENCODING 227
SWIDTH 583 0
DWIDTH 8 0
BBX 7 10 1 0
BITMAP
74
5C
00
F8
0C
0C
7C
CC
CC
7E
ENDCHAR

STARTCHAR adieresis
ENCODING 228
SWIDTH 583 0
DWIDTH 8 0
BBX 7 10 1 0
BITMAP
6C
6C
00
F8
0C
0C
7C
CC
CC
7E
ENDCHAR

STARTCHAR aring
ENCODING 229
SWIDTH 583 0
DWIDTH 8 0
BBX 7 11 1 0
BITMAP
38
28
38
00
F8
0C
0C
7C
CC
CC
7E
ENDCHAR

STARTCHAR ae
ENCODING 230
SWIDTH 885 0
DWIDTH 12 0
BBX 11 7 1 0
BITMAP
FB80
0C40
0C60
7FE0
CC00
CC60
77C0
ENDCHAR

STARTCHAR ccedilla
ENCODING 231
SWIDTH 563 0
DWIDTH 8 0
BBX 7 10 0 -3
BITMAP
3A
66
C0
C0
C0
66
3C
38
18
70
ENDCHAR

STARTCHAR egrave
ENCODING 232
SWIDTH 573 0
DWIDTH 8 0
BBX 7 10 1 0
BITMAP
70
18
00
38
44
C6
FE
C0
46
3C
ENDCHAR

STARTCHAR eacute
ENCODING 233
SWIDTH 573 0
DWIDTH 8 0
BBX 7 10 1 0
BITMAP
1C
30
00
38
44
C6
FE
C0
46
3C
ENDCHAR

STARTCHAR ecircumflex
ENCODING 234
SWIDTH 573 0
DWIDTH 8 0
BBX 7 10 1 0
BITMAP
38
6C
00
38
44
C6
FE
C0
46
3C
ENDCHAR

STARTCHAR edieresis
ENCODING 235
SWIDTH 573 0
DWIDTH 8 0
BBX 7 10 1 0
BITMAP
6C
6C
00
38
44
C6
FE
C0
46
3C
ENDCHAR

STARTCHAR igrave
ENCODING 236
SWIDTH 354 0
DWIDTH 5 0
BBX 5 10 2 0
BITMAP
E0
30
00
70
30
30
30
30
30
78
ENDCHAR

STARTCHAR iacute
ENCODING 237
SWIDTH 354 0
DWIDTH 5 0
BBX 4 10 1 0
BITMAP
70
C0
00
E0
60
60
60
60
60
F0
ENDCHAR

STARTCHAR icircumflex
ENCODING 238
SWIDTH 354 0
DWIDTH 5 0
BBX 5 10 2 0
BITMAP
70
D8
00
70
30
30
30
30
30
78
ENDCHAR

STARTCHAR idieresis
ENCODING 239
SWIDTH 354 0
DWIDTH 5 0
BBX 5 10 2 0
BITMAP
D8
D8
00
70
30
30
30
30
30
78
ENDCHAR

STARTCHAR eth
ENCODING 240
SWIDTH 573 0
DWIDTH 8 0
BBX 7 10 1 0
BITMAP
24
78
04
3E
66
C6
C6
C6
4C
38
ENDCHAR

STARTCHAR ntilde
ENCODING 241
SWIDTH 625 0
DWIDTH 9 0
BBX 8 10 1 0
BITMAP
74
5C
00
FC
66
66
66
66
66
F7
ENDCHAR

STARTCHAR ograve
ENCODING 242
SWIDTH 573 0
DWIDTH 8 0
BBX 7 10 1 0
BITMAP
70
18
00
38
6C
C6
C6
C6
6C
38
ENDCHAR

STARTCHAR oacute
ENCODING 243
SWIDTH 573 0
DWIDTH 8 0
BBX 7 10 1 0
BITMAP
1C
30
00
38
6C
C6
C6
C6
6C
38
ENDCHAR

STARTCHAR ocircumflex
ENCODING 244
SWIDTH 573 0
DWIDTH 8 0
BBX 7 10 1 0
BITMAP
38
6C
00
38
6C
C6
C6
C6
6C
38
ENDCHAR

STARTCHAR otilde
ENCODING 245
SWIDTH 573 0
DWIDTH 8 0
BBX 7 10 1 0
BITMAP
74
5C
00
38
6C
C6
C6
C6
6C
38
ENDCHAR

STARTCHAR odieresis
ENCODING 246
SWIDTH 573 0
DWIDTH 8 0
BBX 7 10 1 0
BITMAP
6C
6C
00
38
6C
C6
C6
C6
6C
38
ENDCHAR

STARTCHAR divide
ENCODING 247
SWIDTH 668 0
DWIDTH 9 0
BBX 8 7 1 1
BITMAP
18
18
00
FF
00
18
18
ENDCHAR

STARTCHAR oslash
ENCODING 248
SWIDTH 573 0
DWIDTH 8 0
BBX 7 7 1 0
BITMAP
3A
6C
CE
D6
E6
6C
B8
ENDCHAR

STARTCHAR ugrave
ENCODING 249
SWIDTH 625 0
DWIDTH 9 0
BBX 8 10 0 0
BITMAP
38
0C
00
EE
66
66
66
66
66
3F
ENDCHAR

STARTCHAR uacute
ENCODING 250
SWIDTH 625 0
DWIDTH 9 0
BBX 8 10 0 0
BITMAP
1C
30
00
EE
66
66
66
66
66
3F
ENDCHAR

STARTCHAR ucircumflex
ENCODING 251
SWIDTH 625 0
DWIDTH 9 0
BBX 8 10 0 0
BITMAP
38
6C
00
EE
66
66
66
66
66
3F
ENDCHAR

STARTCHAR udieresis
ENCODING 252
SWIDTH 625 0
DWIDTH 9 0
BBX 8 10 0 0
BITMAP
6C
6C
00
EE
66
66
66
66
66
3F
ENDCHAR

STARTCHAR yacute
ENCODING 253
SWIDTH 594 0
DWIDTH 8 0
BBX 8 13 0 -3
BITMAP
0E
18
00
F7
62
24
34
34
18
18
18
10
30
ENDCHAR

STARTCHAR thorn
ENCODING 254
SWIDTH 625 0
DWIDTH 9 0
BBX 8 13 0 -3
BITMAP
E0
60
60
6E
77
63
63
63
73
6E
60
60
F0
ENDCHAR

STARTCHAR ydieresis
ENCODING 255
SWIDTH 594 0
DWIDTH 8 0
BBX 8 13 0 -3
BITMAP
36
36
00
F7
62
24
34
34
18
18
18
10
30
ENDCHAR
ENDFONT
